<svg width="148" height="30" viewBox="0 0 148 30" fill="none" xmlns="http://www.w3.org/2000/svg">
    <rect width="144" height="30" fill="white"/>
    <path d="M3.875 8.72266H8.12305C9.96549 8.72266 11.3555 8.98958 12.293 9.52344C13.2305 10.0573 13.6992 10.9785 13.6992 12.2871C13.6992 12.834 13.6016 13.3288 13.4062 13.7715C13.2174 14.2077 12.9408 14.569 12.5762 14.8555C12.2116 15.1354 11.7624 15.3242 11.2285 15.4219V15.5195C11.7819 15.6172 12.2734 15.7897 12.7031 16.0371C13.1393 16.2845 13.4811 16.6393 13.7285 17.1016C13.9824 17.5638 14.1094 18.1628 14.1094 18.8984C14.1094 19.7708 13.901 20.513 13.4844 21.125C13.0742 21.737 12.485 22.2025 11.7168 22.5215C10.9551 22.8405 10.0501 23 9.00195 23H3.875V8.72266ZM6.21875 14.6113H8.46484C9.52604 14.6113 10.2617 14.4388 10.6719 14.0938C11.082 13.7487 11.2871 13.2441 11.2871 12.5801C11.2871 11.903 11.043 11.4147 10.5547 11.1152C10.0729 10.8158 9.30469 10.666 8.25 10.666H6.21875V14.6113ZM6.21875 16.5059V21.0371H8.68945C9.7832 21.0371 10.5514 20.8255 10.9941 20.4023C11.4368 19.9792 11.6582 19.4062 11.6582 18.6836C11.6582 18.2409 11.5573 17.8568 11.3555 17.5312C11.1602 17.2057 10.8379 16.9551 10.3887 16.7793C9.93945 16.597 9.33398 16.5059 8.57227 16.5059H6.21875ZM21.0625 11.9844C22.4297 11.9844 23.4616 12.2871 24.1582 12.8926C24.8613 13.498 25.2129 14.4421 25.2129 15.7246V23H23.582L23.1426 21.4668H23.0645C22.7585 21.8574 22.4427 22.1797 22.1172 22.4336C21.7917 22.6875 21.4141 22.8763 20.9844 23C20.5612 23.1302 20.0436 23.1953 19.4316 23.1953C18.7871 23.1953 18.2109 23.0781 17.7031 22.8438C17.1953 22.6029 16.7949 22.2383 16.502 21.75C16.209 21.2617 16.0625 20.6432 16.0625 19.8945C16.0625 18.7812 16.4759 17.9447 17.3027 17.3848C18.1361 16.8249 19.3926 16.5156 21.0723 16.457L22.9473 16.3887V15.8223C22.9473 15.0736 22.7715 14.5397 22.4199 14.2207C22.0749 13.9017 21.5866 13.7422 20.9551 13.7422C20.4147 13.7422 19.8906 13.8203 19.3828 13.9766C18.875 14.1328 18.3802 14.3249 17.8984 14.5527L17.1562 12.9316C17.6836 12.6517 18.2826 12.4238 18.9531 12.248C19.6302 12.0723 20.3333 11.9844 21.0625 11.9844ZM22.9375 17.834L21.541 17.8828C20.3952 17.9219 19.5911 18.1172 19.1289 18.4688C18.6667 18.8203 18.4355 19.3021 18.4355 19.9141C18.4355 20.4479 18.5951 20.8385 18.9141 21.0859C19.2331 21.3268 19.653 21.4473 20.1738 21.4473C20.9681 21.4473 21.6257 21.2227 22.1465 20.7734C22.6738 20.3177 22.9375 19.6504 22.9375 18.7715V17.834ZM34.0605 11.9844C35.278 11.9844 36.2253 12.3001 36.9023 12.9316C37.5859 13.5566 37.9277 14.5625 37.9277 15.9492V23H35.6328V16.3789C35.6328 15.5391 35.4603 14.9108 35.1152 14.4941C34.7702 14.071 34.2363 13.8594 33.5137 13.8594C32.4655 13.8594 31.7363 14.1816 31.3262 14.8262C30.9225 15.4707 30.7207 16.4049 30.7207 17.6289V23H28.4258V12.1895H30.2129L30.5352 13.6543H30.6621C30.8965 13.2767 31.1862 12.9674 31.5312 12.7266C31.8828 12.4792 32.2734 12.2936 32.7031 12.1699C33.1393 12.0462 33.5918 11.9844 34.0605 11.9844ZM45.4961 23.1953C44.474 23.1953 43.5885 22.9967 42.8398 22.5996C42.0911 22.2025 41.515 21.5938 41.1113 20.7734C40.7077 19.9531 40.5059 18.9115 40.5059 17.6484C40.5059 16.3333 40.7272 15.2591 41.1699 14.4258C41.6126 13.5924 42.2246 12.9772 43.0059 12.5801C43.7936 12.1829 44.6953 11.9844 45.7109 11.9844C46.3555 11.9844 46.9382 12.0495 47.459 12.1797C47.9863 12.3034 48.4323 12.4564 48.7969 12.6387L48.1133 14.4746C47.7161 14.3118 47.3092 14.1751 46.8926 14.0645C46.4759 13.9538 46.0755 13.8984 45.6914 13.8984C45.0599 13.8984 44.5326 14.0384 44.1094 14.3184C43.6927 14.5983 43.3802 15.015 43.1719 15.5684C42.9701 16.1217 42.8691 16.8086 42.8691 17.6289C42.8691 18.4232 42.9733 19.0938 43.1816 19.6406C43.39 20.181 43.6992 20.5911 44.1094 20.8711C44.5195 21.1445 45.0241 21.2812 45.623 21.2812C46.2155 21.2812 46.7461 21.2096 47.2148 21.0664C47.6836 20.9232 48.1263 20.7376 48.543 20.5098V22.502C48.1328 22.7363 47.6934 22.9089 47.2246 23.0195C46.7559 23.1367 46.1797 23.1953 45.4961 23.1953ZM60.6523 17.5703C60.6523 18.4688 60.5352 19.2663 60.3008 19.9629C60.0664 20.6595 59.7246 21.2487 59.2754 21.7305C58.8262 22.2057 58.2858 22.5703 57.6543 22.8242C57.0228 23.0716 56.3099 23.1953 55.5156 23.1953C54.7734 23.1953 54.0931 23.0716 53.4746 22.8242C52.8561 22.5703 52.319 22.2057 51.8633 21.7305C51.4141 21.2487 51.0658 20.6595 50.8184 19.9629C50.571 19.2663 50.4473 18.4688 50.4473 17.5703C50.4473 16.3789 50.6523 15.3698 51.0625 14.543C51.4792 13.7096 52.0716 13.0749 52.8398 12.6387C53.6081 12.2025 54.5228 11.9844 55.584 11.9844C56.5801 11.9844 57.459 12.2025 58.2207 12.6387C58.9824 13.0749 59.5781 13.7096 60.0078 14.543C60.4375 15.3763 60.6523 16.3854 60.6523 17.5703ZM52.8105 17.5703C52.8105 18.3581 52.9049 19.0319 53.0938 19.5918C53.2891 20.1517 53.5885 20.5814 53.9922 20.8809C54.3958 21.1738 54.9167 21.3203 55.5547 21.3203C56.1927 21.3203 56.7135 21.1738 57.1172 20.8809C57.5208 20.5814 57.8171 20.1517 58.0059 19.5918C58.1947 19.0319 58.2891 18.3581 58.2891 17.5703C58.2891 16.7826 58.1947 16.1152 58.0059 15.5684C57.8171 15.015 57.5208 14.5951 57.1172 14.3086C56.7135 14.0156 56.1895 13.8691 55.5449 13.8691C54.5944 13.8691 53.901 14.1882 53.4648 14.8262C53.0286 15.4642 52.8105 16.3789 52.8105 17.5703ZM72.2148 23H62.5469V21.2715L66.248 17.5215C66.9642 16.7923 67.5534 16.1641 68.0156 15.6367C68.4779 15.1029 68.8197 14.5983 69.041 14.123C69.2689 13.6478 69.3828 13.1302 69.3828 12.5703C69.3828 11.8802 69.1842 11.3594 68.7871 11.0078C68.39 10.6497 67.8659 10.4707 67.2148 10.4707C66.5964 10.4707 66.0234 10.5944 65.4961 10.8418C64.9753 11.0827 64.4349 11.4277 63.875 11.877L62.6152 10.3633C63.0124 10.0247 63.4355 9.71549 63.8848 9.43555C64.3405 9.1556 64.8483 8.93424 65.4082 8.77148C65.9681 8.60221 66.6061 8.51758 67.3223 8.51758C68.2272 8.51758 69.0085 8.68034 69.666 9.00586C70.3236 9.32487 70.8281 9.77083 71.1797 10.3438C71.5378 10.9167 71.7168 11.584 71.7168 12.3457C71.7168 13.1139 71.5638 13.8236 71.2578 14.4746C70.9518 15.1257 70.5156 15.7702 69.9492 16.4082C69.3828 17.0397 68.709 17.7266 67.9277 18.4688L65.457 20.8809V20.9883H72.2148V23ZM84.1777 19.8652H82.2441V23H79.9785V19.8652H73.4844V18.127L80.0078 8.68359H82.2441V17.9609H84.1777V19.8652ZM79.9785 17.9609V14.416C79.9785 14.123 79.9818 13.8268 79.9883 13.5273C80.0013 13.2214 80.0143 12.9284 80.0273 12.6484C80.0404 12.3685 80.0534 12.1113 80.0664 11.877C80.0794 11.6361 80.0892 11.4375 80.0957 11.2812H80.0176C79.8939 11.5417 79.7572 11.8086 79.6074 12.082C79.4577 12.349 79.2982 12.6094 79.1289 12.8633L75.6133 17.9609H79.9785ZM97.6738 23H95.3398V16.5547H88.7578V23H86.4141V8.72266H88.7578V14.5625H95.3398V8.72266H97.6738V23ZM110.789 17.5703C110.789 18.4688 110.672 19.2663 110.438 19.9629C110.203 20.6595 109.861 21.2487 109.412 21.7305C108.963 22.2057 108.423 22.5703 107.791 22.8242C107.16 23.0716 106.447 23.1953 105.652 23.1953C104.91 23.1953 104.23 23.0716 103.611 22.8242C102.993 22.5703 102.456 22.2057 102 21.7305C101.551 21.2487 101.202 20.6595 100.955 19.9629C100.708 19.2663 100.584 18.4688 100.584 17.5703C100.584 16.3789 100.789 15.3698 101.199 14.543C101.616 13.7096 102.208 13.0749 102.977 12.6387C103.745 12.2025 104.66 11.9844 105.721 11.9844C106.717 11.9844 107.596 12.2025 108.357 12.6387C109.119 13.0749 109.715 13.7096 110.145 14.543C110.574 15.3763 110.789 16.3854 110.789 17.5703ZM102.947 17.5703C102.947 18.3581 103.042 19.0319 103.23 19.5918C103.426 20.1517 103.725 20.5814 104.129 20.8809C104.533 21.1738 105.053 21.3203 105.691 21.3203C106.329 21.3203 106.85 21.1738 107.254 20.8809C107.658 20.5814 107.954 20.1517 108.143 19.5918C108.331 19.0319 108.426 18.3581 108.426 17.5703C108.426 16.7826 108.331 16.1152 108.143 15.5684C107.954 15.015 107.658 14.5951 107.254 14.3086C106.85 14.0156 106.326 13.8691 105.682 13.8691C104.731 13.8691 104.038 14.1882 103.602 14.8262C103.165 15.4642 102.947 16.3789 102.947 17.5703ZM118.904 11.9844C119.087 11.9844 119.285 11.9941 119.5 12.0137C119.715 12.0332 119.9 12.0592 120.057 12.0918L119.842 14.2402C119.705 14.2012 119.536 14.1719 119.334 14.1523C119.139 14.1328 118.963 14.123 118.807 14.123C118.396 14.123 118.006 14.1914 117.635 14.3281C117.264 14.4583 116.935 14.6602 116.648 14.9336C116.362 15.2005 116.137 15.5358 115.975 15.9395C115.812 16.3431 115.73 16.8118 115.73 17.3457V23H113.426V12.1895H115.223L115.535 14.0938H115.643C115.857 13.7096 116.124 13.3581 116.443 13.0391C116.762 12.7201 117.127 12.4661 117.537 12.2773C117.954 12.082 118.41 11.9844 118.904 11.9844ZM126.297 11.9844C127.664 11.9844 128.696 12.2871 129.393 12.8926C130.096 13.498 130.447 14.4421 130.447 15.7246V23H128.816L128.377 21.4668H128.299C127.993 21.8574 127.677 22.1797 127.352 22.4336C127.026 22.6875 126.648 22.8763 126.219 23C125.796 23.1302 125.278 23.1953 124.666 23.1953C124.021 23.1953 123.445 23.0781 122.938 22.8438C122.43 22.6029 122.029 22.2383 121.736 21.75C121.443 21.2617 121.297 20.6432 121.297 19.8945C121.297 18.7812 121.71 17.9447 122.537 17.3848C123.37 16.8249 124.627 16.5156 126.307 16.457L128.182 16.3887V15.8223C128.182 15.0736 128.006 14.5397 127.654 14.2207C127.309 13.9017 126.821 13.7422 126.189 13.7422C125.649 13.7422 125.125 13.8203 124.617 13.9766C124.109 14.1328 123.615 14.3249 123.133 14.5527L122.391 12.9316C122.918 12.6517 123.517 12.4238 124.188 12.248C124.865 12.0723 125.568 11.9844 126.297 11.9844ZM128.172 17.834L126.775 17.8828C125.63 17.9219 124.826 18.1172 124.363 18.4688C123.901 18.8203 123.67 19.3021 123.67 19.9141C123.67 20.4479 123.829 20.8385 124.148 21.0859C124.467 21.3268 124.887 21.4473 125.408 21.4473C126.202 21.4473 126.86 21.2227 127.381 20.7734C127.908 20.3177 128.172 19.6504 128.172 18.7715V17.834ZM140.926 19.9141C140.926 20.6237 140.753 21.2227 140.408 21.7109C140.063 22.1992 139.559 22.5703 138.895 22.8242C138.237 23.0716 137.43 23.1953 136.473 23.1953C135.717 23.1953 135.066 23.14 134.52 23.0293C133.979 22.9251 133.468 22.7624 132.986 22.541V20.5586C133.501 20.7995 134.077 21.0078 134.715 21.1836C135.359 21.3594 135.968 21.4473 136.541 21.4473C137.296 21.4473 137.84 21.3301 138.172 21.0957C138.504 20.8548 138.67 20.5358 138.67 20.1387C138.67 19.9043 138.602 19.696 138.465 19.5137C138.335 19.3249 138.087 19.1328 137.723 18.9375C137.365 18.7357 136.837 18.4948 136.141 18.2148C135.457 17.9414 134.881 17.668 134.412 17.3945C133.943 17.1211 133.589 16.7923 133.348 16.4082C133.107 16.0176 132.986 15.5195 132.986 14.9141C132.986 13.957 133.364 13.2311 134.119 12.7363C134.881 12.235 135.887 11.9844 137.137 11.9844C137.801 11.9844 138.426 12.0527 139.012 12.1895C139.604 12.3197 140.184 12.5117 140.75 12.7656L140.027 14.4941C139.539 14.2793 139.048 14.1035 138.553 13.9668C138.064 13.8236 137.566 13.752 137.059 13.752C136.466 13.752 136.014 13.8431 135.701 14.0254C135.395 14.2077 135.242 14.4681 135.242 14.8066C135.242 15.0605 135.317 15.2754 135.467 15.4512C135.617 15.627 135.874 15.8027 136.238 15.9785C136.609 16.1543 137.124 16.3724 137.781 16.6328C138.426 16.8802 138.982 17.1406 139.451 17.4141C139.926 17.681 140.291 18.0098 140.545 18.4004C140.799 18.791 140.926 19.2956 140.926 19.9141Z" fill="#FF581C"/>
</svg>